<?xml version="1.0" encoding="utf-8"?>
<!-- Generator: Adobe Illustrator 27.9.0, SVG Export Plug-In . SVG Version: 6.00 Build 0)  -->
<svg version="1.1" id="Layer_1" xmlns="http://www.w3.org/2000/svg" xmlns:xlink="http://www.w3.org/1999/xlink" x="0px" y="0px"
	 viewBox="0 0 800 587.2" style="enable-background:new 0 0 800 587.2;" xml:space="preserve">
<style type="text/css">
	.st0{fill:#001700;}
	.st1{fill:#ED7A63;}
</style>
<path class="st0" d="M796.2,571.7L796.2,571.7c-1.8-7.6-18.6-35.6-28.7-52.1l-77.4-140.6c-1.6-2.4-2.3-3.2-4.2-5.5
	c-8.9-10.6-21.5-21.3-38-32.1L374.2,161.2L293,254.3l-1.7-1.1l46.3-116.1l-44.7-29.4L204.4,196l-1.7-1.1l53.6-111.3L195,43.3l0,0
	L141.2,7.9c-7.6-5-16.2-7.4-24.8-7.4c-14.7,0-29.1,7.2-37.8,20.3L7.8,128.4c-13.7,20.8-7.9,48.8,12.9,62.5l53.9,35.4l0,0l33.2,21.8
	l0,0l72.1,47.4l57.5-58.7l3.4,2.2l-30.9,76.2l76.6,50.4l110.9-122.2l40.8,26.9l-89.6,136.2l58.6,38.5L496.7,309l38.4,25.2
	l-89.6,136.2l82,54c16.4,10.8,31.3,18.2,44.6,22c1.7,0.5,3.4,0.9,5,1.2l0,0.1l2,0.3c4.5,0.9,8.8,1.4,13.5,2.1l0,0l197.7,30.6h0
	c0,0,5.8,1.3,6.3-4.4C797.1,574.8,797,573.2,796.2,571.7z M14.2,159.7c-1.7-8.4-0.1-16.9,4.6-24.1L89.6,28
	c5.9-9,15.9-14.4,26.8-14.4c6.2,0,12.3,1.8,17.5,5.3l48,31.5l-106,161.2l-48-31.6C20.8,175.3,15.9,168.1,14.2,159.7z M559.3,478.1
	l-24.4-16.1l58.8-89.4l24.4,16.1c8.1,5.4,13.3,10.1,15.6,14.3c2.3,4.2,1.2,9.6-3.2,16.3l-38.2,58.1c-4.4,6.7-9,9.8-13.7,9.4
	C573.9,486.4,567.5,483.5,559.3,478.1z M645.6,510.2c0.9,0.2,1.8,0.5,2.7,0.8c-18.2-29.7-4.5-61.1,30-55
	c-17.2-15.8-3.5-46.7,8.8-51.3l1.9-0.5l62.3,113.3c0,0,0,0,0,0c-6.2,7.8-13.9,14.2-20.3,21.8c-4.3,5.2-8.2,11-10.2,17.3l-121.4-18.8
	l8-11.9C615.8,513.5,631,506.8,645.6,510.2z"/>
<path class="st1" d="M387.1,166.8c-24.6,50.4-57.8,96.4-97.8,135.7c1.3-6.6,1.6-13.4,0.8-20.2c-1-9.1-3.8-19.3-12.4-24
	c-8.4-4.6-18.8-2.1-23.2,6.7c-4.6,9.2-5.6,20.5-6.6,30.6c-1,10-1.5,20.1-3.7,29.9c-0.5,2.1-1,4.2-1.7,6.3
	c-6.8-1.2-13.7-2.1-20.6-2.6c-10.4-0.7-21.5-1.1-31.8,1.2c-8.4,1.9-16.7,6.7-20.4,14.8c-3.5,7.6-3.5,17.3,2.4,23.7
	c6.7,7.2,18.1,6.7,27.2,6.7c10,0.1,20.1-1.1,29.3-5.4c4.3-2,8.1-4.8,11.4-8c-0.8,9.4,2.2,19,4.1,28c2.4,11.2,4.8,22.4,7.2,33.6
	c10.6,50.7,19.6,101.9,19.4,153.8c0,8.5,13.1,8.5,13.1,0c0.2-44.8-6.4-89.2-15-133c-4.3-22-9.1-43.8-13.8-65.7
	c-1-4.8-2.4-9.7-2.2-14.6c0.1-2.9,1.1-5.6,2.4-8.1c10.4,12.5,15.3,28.6,20.1,44c5.6,18.1,11.5,36.9,24.4,51.4
	c8.7,9.8,20.7,15.4,30.5,23.9c6.4,5.5,15.7-3.8,9.3-9.3c-8.9-7.6-19.5-12.9-27.9-21.1c-6.4-6.3-10.9-14.1-14.6-22.3
	c-7.7-17.4-11.3-36.3-18.9-53.8c-3.7-8.5-8.5-16.6-14.7-23.5c3.4-3.6,7.1-6.9,10.3-10.7c0.5-0.5,0.9-1.1,1.3-1.7
	c38.5-33.3,72-72.4,98.9-115.7c8.9-14.3,17-29.1,24.4-44.2C402.1,165.8,390.8,159.2,387.1,166.8z M261.1,295.6
	c0.5-5.2,1.2-10.4,2.4-15.5c0.6-2.6,1.4-9.9,4.6-11.1c3.1-1.1,6,3,7,5.3c1.8,4,2.2,8.9,2.4,13.2c0.3,9.4-1.7,19-6,27.4
	c-2,3.9-4.5,7.3-7.4,10.6c-2.6,2.2-5.2,4.4-7.9,6.6c0.4-1.6,0.8-3.3,1.1-4.9C259.5,316.8,260,306.2,261.1,295.6z M214.6,361.4
	c-4.8,1.1-9.7,1.3-14.6,1.3c-4.9,0-11.1,0.6-15.7-1.1c-6.9-2.4-3.4-11.8,1-14.9c8.3-5.9,20.9-4.9,30.4-4.5c7.2,0.2,14.4,1,21.5,2.2
	C232.3,352.6,225.1,359,214.6,361.4z"/>
</svg>
