<?xml version="1.0" encoding="utf-8"?>
<!-- Generator: Adobe Illustrator 28.0.0, SVG Export Plug-In . SVG Version: 6.00 Build 0)  -->
<svg version="1.1" id="Layer_1" xmlns="http://www.w3.org/2000/svg" xmlns:xlink="http://www.w3.org/1999/xlink" x="0px" y="0px"
	 viewBox="0 0 800 587.18" style="enable-background:new 0 0 800 587.18;" xml:space="preserve">
<style type="text/css">
	.st0{fill:#EEF1E1;}
	.st1{fill:#93B753;}
	.st2{fill:#CCD019;}
	.st3{fill:#061702;}
	.st4{fill:#EBF3F3;}
	.st5{fill:#ED7A63;}
	.st6{fill:#001700;}
</style>
<path class="st0" d="M796.22,571.69L796.22,571.69c-1.82-7.57-18.57-35.63-28.66-52.11l-77.37-140.65c-1.62-2.4-2.28-3.16-4.25-5.5
	c-8.88-10.62-21.53-21.34-37.96-32.15L374.23,161.18l-81.21,93.13l-1.71-1.12l46.3-116.1l-44.67-29.39l-88.53,88.32l-1.71-1.12
	l53.62-111.28L195.04,43.3l0,0L141.17,7.86c-7.64-5.03-16.25-7.43-24.77-7.43c-14.68,0-29.08,7.15-37.75,20.34L7.82,128.44
	c-13.7,20.83-7.93,48.82,12.9,62.52l53.86,35.44l0,0l33.15,21.81l0,0l72.06,47.41l57.51-58.7l3.42,2.25l-30.9,76.21l76.65,50.43
	l110.87-122.24l40.81,26.85l-89.62,136.22l58.59,38.54l89.62-136.22l38.36,25.24L445.5,470.41l82.03,53.96
	c16.44,10.81,31.31,18.15,44.63,22.01c1.72,0.5,3.37,0.9,4.99,1.25l-0.05,0.07l2.01,0.31c4.51,0.86,8.84,1.37,13.51,2.09l0,0
	l197.67,30.57l0.02,0c0,0,5.83,1.3,6.35-4.43C797.09,574.81,797.01,573.2,796.22,571.69z M14.19,159.71
	c-1.73-8.37-0.09-16.92,4.61-24.06L89.63,27.98c5.94-9.03,15.95-14.42,26.78-14.42c6.24,0,12.31,1.82,17.55,5.27l47.97,31.55
	L75.91,211.54l-47.97-31.55C20.8,175.29,15.91,168.09,14.19,159.71z M559.34,478.14l-24.41-16.06l58.78-89.35l24.41,16.06
	c8.14,5.35,13.33,10.12,15.61,14.29c2.26,4.18,1.21,9.6-3.18,16.27l-38.22,58.1c-4.39,6.68-8.95,9.8-13.68,9.36
	C573.91,486.38,567.47,483.49,559.34,478.14z M645.64,510.24c0.9,0.21,1.8,0.46,2.7,0.75c-18.19-29.66-4.52-61.15,30.05-54.98
	c-17.25-15.77-3.47-46.72,8.75-51.3l1.93-0.53l62.32,113.31c0,0.01,0,0.01,0,0.02c-6.23,7.75-13.88,14.22-20.28,21.81
	c-4.34,5.15-8.15,10.99-10.18,17.35L599.5,537.87l7.97-11.89C615.83,513.49,631.01,506.76,645.64,510.24z"/>
<path class="st5" d="M387.11,166.76c-24.64,50.4-57.75,96.37-97.75,135.67c1.27-6.62,1.6-13.41,0.83-20.16
	c-1.04-9.07-3.75-19.32-12.42-24.02c-8.43-4.58-18.79-2.11-23.16,6.71c-4.58,9.24-5.58,20.54-6.62,30.64
	c-1.03,9.99-1.48,20.1-3.66,29.94c-0.48,2.14-1.04,4.25-1.68,6.33c-6.83-1.21-13.72-2.11-20.64-2.58
	c-10.44-0.72-21.51-1.12-31.78,1.24c-8.4,1.94-16.72,6.7-20.44,14.79c-3.48,7.57-3.54,17.28,2.4,23.7
	c6.71,7.25,18.1,6.67,27.17,6.73c10.03,0.07,20.11-1.06,29.27-5.38c4.32-2.04,8.09-4.78,11.38-8.02
	c-0.84,9.36,2.19,19.05,4.13,28.05c2.41,11.2,4.83,22.4,7.18,33.61c10.59,50.66,19.61,101.88,19.42,153.8
	c-0.03,8.45,13.1,8.46,13.13,0c0.16-44.75-6.41-89.17-14.96-133c-4.29-21.97-9.09-43.83-13.79-65.71c-1.03-4.8-2.38-9.7-2.16-14.65
	c0.13-2.94,1.05-5.62,2.37-8.15c10.38,12.52,15.27,28.59,20.06,43.98c5.65,18.13,11.5,36.93,24.4,51.38
	c8.73,9.78,20.67,15.42,30.51,23.86c6.39,5.47,15.72-3.78,9.29-9.29c-8.85-7.58-19.55-12.87-27.86-21.07
	c-6.4-6.31-10.94-14.11-14.57-22.27c-7.74-17.39-11.33-36.32-18.93-53.79c-3.71-8.53-8.5-16.56-14.72-23.46
	c3.44-3.56,7.11-6.92,10.28-10.67c0.46-0.54,0.9-1.11,1.34-1.67c38.55-33.29,71.99-72.44,98.89-115.71
	c8.9-14.31,17.04-29.09,24.44-44.22C402.15,165.82,390.83,159.16,387.11,166.76z M261.12,295.6c0.54-5.21,1.25-10.38,2.41-15.49
	c0.6-2.63,1.36-9.94,4.56-11.06c3.14-1.1,6,2.98,7.01,5.28c1.77,4.05,2.22,8.86,2.35,13.22c0.28,9.41-1.71,18.95-5.96,27.37
	c-1.95,3.87-4.53,7.34-7.38,10.65c-2.61,2.23-5.25,4.43-7.9,6.6c0.43-1.64,0.82-3.29,1.15-4.92
	C259.47,316.82,260.02,306.16,261.12,295.6z M214.63,361.35c-4.78,1.07-9.7,1.27-14.59,1.27c-4.89-0.01-11.06,0.57-15.74-1.08
	c-6.91-2.44-3.42-11.75,1.04-14.91c8.28-5.88,20.85-4.86,30.43-4.53c7.22,0.25,14.37,1.02,21.47,2.16
	C232.34,352.56,225.13,359.01,214.63,361.35z"/>
</svg>
