<?xml version="1.0" encoding="utf-8"?>
<!-- Generator: Adobe Illustrator 28.0.0, SVG Export Plug-In . SVG Version: 6.00 Build 0)  -->
<svg version="1.1" id="Layer_1" xmlns="http://www.w3.org/2000/svg" xmlns:xlink="http://www.w3.org/1999/xlink" x="0px" y="0px"
	 viewBox="0 0 800 617.32" style="enable-background:new 0 0 800 617.32;" xml:space="preserve">
<style type="text/css">
	.st0{fill:#EEF1E1;}
	.st1{fill:#93B753;}
	.st2{fill:#CCD019;}
	.st3{fill:#061702;}
	.st4{fill:#EBF3F3;}
	.st5{fill:#ED7A63;}
	.st6{fill:#001700;}
</style>
<g>
	<polygon class="st3" points="173.1,194.46 171.44,194.46 150.97,86.19 107.41,86.19 86.7,194.46 85.04,194.46 71.71,31.24 
		11.96,31.24 52.4,361.39 103.16,361.39 127.4,215.88 130.74,215.88 143.83,323.4 218.57,310.58 246.42,31.24 186.67,31.24 	"/>
	<path class="st3" d="M304.97,82.89l-15.71-15.95h-28.56v156.19h57.13v-95.01c1.43-1.74,3.49-3.29,6.19-4.64
		c2.7-1.35,5.67-2.5,8.93-3.45c3.25-0.95,6.46-1.74,9.64-2.38c3.17-0.63,5.87-0.95,8.09-0.95l-3.33-54.03
		C330.51,65.67,316.39,72.41,304.97,82.89z"/>
	<path class="st3" d="M418.9,5.4c-2.38-1.82-5.59-3.13-9.64-3.93c-4.05-0.79-9.25-1.19-15.59-1.19c-6.35,0-11.58,0.4-15.71,1.19
		c-4.13,0.8-7.38,2.11-9.76,3.93c-2.38,1.83-4.05,4.21-5,7.14c-0.95,2.94-1.43,6.55-1.43,10.83c0,5.4,0.79,9.6,2.38,12.61
		c1.58,3.02,3.81,5.28,6.66,6.78c2.86,1.51,6.23,2.42,10.12,2.74c3.89,0.32,8.13,0.48,12.73,0.48c6.35,0,11.54-0.36,15.59-1.07
		c4.05-0.71,7.26-1.98,9.64-3.81c2.38-1.82,4.05-4.16,5-7.02c0.95-2.86,1.43-6.43,1.43-10.71s-0.48-7.89-1.43-10.83
		C422.95,9.61,421.28,7.23,418.9,5.4z"/>
	<polygon class="st3" points="364.87,193.08 421.99,201.11 421.99,50.27 364.87,57.41 	"/>
	<path class="st3" d="M507.84,78.96l-57.13,14.28v22.85h-14.28v36.89h14.28v79.02c0,7.3,1.74,12.82,5.24,16.54
		c3.49,3.73,8.57,6.78,15.23,9.16c7.93,2.86,24.91,4.28,50.94,4.28l2.62-41.89c-3.18-0.16-6.19-0.44-9.04-0.83
		c-2.86-0.39-5.47-0.83-7.85-1.31v-64.98h19.76v-36.89h-19.76V78.96z"/>
	<path class="st3" d="M677,73.49c-5.47-3.89-12.66-6.66-21.54-8.33c-8.89-1.67-19.99-2.5-33.32-2.5c-26.5,0-45.74,6.23-57.72,18.68
		c-11.98,12.46-17.97,31.46-17.97,57.01c0,25.55,5.95,44.55,17.85,57.01c11.9,12.46,31.18,18.68,57.84,18.68
		c20.79,0,41.89-2.86,63.32-8.57l-6.67-41.89c-18.09,5.71-36.02,8.57-53.79,8.57c-2.86,0-5.71-0.08-8.57-0.24
		c-2.86-0.16-5.71-0.39-8.57-0.71v-10c16.03,0,29.43-0.91,40.23-2.74c10.79-1.82,19.44-4.64,25.95-8.45
		c6.5-3.81,11.15-8.69,13.92-14.64c2.77-5.95,4.17-13.05,4.17-21.3c0-10-1.15-18.29-3.45-24.87C686.36,82.61,682.48,77.38,677,73.49
		z M639.27,115.97c0,5.24-1.55,8.57-4.64,10c-3.09,1.43-8.13,2.14-15.12,2.14h-11.66v-11.66c0-5.24,1.55-8.57,4.64-10
		c3.09-1.43,8.13-2.14,15.12-2.14h11.66V115.97z"/>
	<path class="st3" d="M309.74,246.98l-57.13,14.28v22.85h-14.28V321h14.28v79.02c0,7.3,1.74,12.82,5.24,16.54
		c3.49,3.73,8.57,6.78,15.23,9.16c7.93,2.86,24.91,4.28,50.94,4.28l2.62-41.89c-3.18-0.16-6.19-0.44-9.04-0.83
		c-2.86-0.39-5.47-0.83-7.85-1.31V321h19.76v-36.89h-19.76V246.98z"/>
	<path class="st3" d="M482.31,280.49c-7.62-5.79-18.89-8.69-33.8-8.69c-14.76,0-28.25,3.18-40.46,9.52v-68.41l-57.13,4.28V418.9
		h57.13v-88.07c0-5.08,1.55-8.33,4.64-9.76c3.09-1.43,8.13-2.14,15.11-2.14h8.81v99.97h57.13V304.65
		C493.74,294.34,489.93,286.28,482.31,280.49z"/>
	<path class="st3" d="M611.99,224.63c-24.49-4.59-46.63-5.75-66.43-3.48l-0.75,41.51c16.25-2.28,34.9-1.45,55.96,2.49
		c2.03,0.38,4.23,0.88,6.62,1.48c2.39,0.61,5.05,1.27,7.98,1.98l-1.88,10.06l-11.23-2.1c-50.85-9.53-79.43,2.56-85.74,36.25
		c-1.61,8.58-1.8,16.05-0.57,22.41c1.23,6.37,3.69,11.75,7.39,16.16c3.69,4.41,8.55,8.02,14.56,10.84
		c6.01,2.82,12.99,4.98,20.95,6.47c4.21,0.79,8.66,1.14,13.36,1.05c4.7-0.09,9.39-0.58,14.08-1.48c4.69-0.9,9.17-2.24,13.47-4.02
		c4.29-1.78,8.13-3.96,11.52-6.56l24.21,53.24l28.08,5.26l7.13-132.61C676.48,252.69,656.91,233.04,611.99,224.63z M604.9,324.53
		c-0.53,2.81-2.07,5.02-4.63,6.64c-2.85,1.4-8.33,1.35-16.44-0.17l-11.7-2.19l2.15-11.46c0.96-5.15,3.13-8.13,6.52-8.95
		c3.38-0.82,8.43-0.6,15.13,0.65l11.46,2.15L604.9,324.53z"/>
	<path class="st3" d="M752.73,177.32L695.6,191.6v44.48h-14.28v36.89h14.28v79.02c0,7.3,1.74,12.82,5.24,16.54
		c3.49,3.73,8.57,6.78,15.23,9.16c7.93,2.86,24.91,4.28,50.94,4.28l2.62-41.89c-3.18-0.16-6.19-0.44-9.04-0.83
		c-2.86-0.39-5.48-0.83-7.86-1.31v-64.98h19.76v-36.89h-19.76V177.32z"/>
	<path class="st3" d="M149.93,406.97h-38.45c-12.64,0-23.22,2.28-31.76,6.83c-8.54,4.55-15.42,10.64-20.62,18.25
		c-5.2,7.62-8.91,16.49-11.14,26.61c-2.23,10.13-3.34,20.76-3.34,31.9c0,11.7,1.25,22.94,3.76,33.71
		c2.51,10.78,6.59,20.2,12.26,28.28c5.66,8.08,13.05,14.54,22.15,19.36c9.1,4.83,20.34,7.24,33.71,7.24
		c25.44,0,42.91-6.31,52.38-18.95l14.49,13.93h33.43v-228.6l-76.26,11.28L149.93,406.97z M149.93,518.42
		c-0.56,5.2-2.64,8.5-6.27,9.89c-3.62,1.39-9.24,2.09-16.86,2.09H116.5v-65.48c0-6.13,1.81-10.03,5.43-11.7s9.52-2.51,17.69-2.51
		h10.31V518.42z"/>
	<path class="st3" d="M316.38,453.39c-26.66,0-45.94,6.23-57.84,18.68c-11.9,12.46-17.85,31.46-17.85,57.01
		c0,26.03,6.11,45.15,18.33,57.36c12.22,12.22,31.34,18.33,57.36,18.33c26.66,0,45.94-6.23,57.84-18.68
		c11.9-12.46,17.85-31.46,17.85-57.01c0-25.55-5.95-44.55-17.85-57.01C362.32,459.61,343.04,453.39,316.38,453.39z M330.66,550.98
		c0,5.24-1.55,8.57-4.64,10c-3.09,1.43-8.13,2.14-15.11,2.14h-8.81v-55.94c0-5.24,1.55-8.57,4.64-10c3.09-1.43,8.13-2.14,15.11-2.14
		h8.81V550.98z"/>
	<polygon class="st3" points="544.22,558.45 541.13,558.45 525.18,462.35 482.33,462.35 464.24,558.45 461.15,558.45 449.48,462.35 
		393.55,462.35 422.11,616.53 489.47,616.53 501.85,555.12 503.99,555.12 515.18,616.53 585.4,616.53 617.73,409.21 561.8,388.33 	
		"/>
	<path class="st3" d="M747.29,413.17c-8.86-3.44-19.77-3.27-32.71,0.52c-19.65,5.75-36.18,17.03-49.61,33.86l-17.72-9.7l-27.41,8.02
		l40.09,137.07l54.83-16.04l-24.99-85.44c-1.29-4.42-0.53-7.74,2.29-9.97c2.82-2.23,7.35-4.26,13.6-6.08l8.45-2.47l28.07,95.95
		L797,542.84l-32.08-109.66C762.03,423.29,756.15,416.62,747.29,413.17z"/>
</g>
<path class="st5" d="M79.02,234.16c-7.82-4.53-10.38-13.92-11.28-22.35c-1.09-10.26-1.02-20.46-4.72-30.25
	c-5.91-15.67-17.22-28.24-28.9-39.97c1.92-0.89,3.8-1.87,5.59-2.97c16.56-5.39,32.31-14.13,40.73-30.05
	c2.41-4.56-4.51-8.62-6.93-4.05c-5.16,9.76-13.43,16.37-22.89,21.1c2.08-7.04,0.52-16.13-8.51-16.06
	c-8.84,0.07-14.48,8.43-16.93,16.02c-2.83-3.44-6.59-6.14-10.83-7.63c-3.73-1.31-9.1-2.23-11.68,1.58c-2.51,3.71-1.7,8.9,0.44,12.58
	c2.37,4.07,6.4,6.6,10.76,8.11c2.06,0.71,4.96,1.66,7.75,2c1.08,29.65-17.27,60.49-1.21,88.76c2.55,4.49,9.48,0.45,6.93-4.05
	c-7-12.32-6.26-27.13-3.87-40.64c2.23-12.59,5.59-25.11,6.12-37.89c11.54,11.6,22.94,24.34,27.33,40.31
	c4.85,17.62-0.77,41.48,18.05,52.39C79.45,243.69,83.49,236.76,79.02,234.16z M32.57,128.91c1.19-4.15,3.29-9.06,7.58-10.86
	c6.56-2.75,2.07,7.69,0.19,9.86c-1.12,1.29-2.43,2.38-3.83,3.34c-1.57,0.5-3.14,0.96-4.72,1.39C32.03,131.3,32.25,130,32.57,128.91z
	 M9.6,127.22c-0.2-0.46-0.17-1.54-0.24-2.24c0.31,0.03,0.56,0.06,0.61,0.07c2.12,0.42,4.11,1.34,5.87,2.58
	c2.26,1.6,3.89,3.71,5.04,6.08c-0.29-0.04-0.52-0.08-0.6-0.09C16.24,132.78,11.38,131.4,9.6,127.22z"/>
</svg>
